<svg width="20" height="20" viewBox="0 0 20 20" fill="none" xmlns="http://www.w3.org/2000/svg">
<path d="M7.61223 17.3111V14.763C7.61223 14.1126 8.14339 13.5853 8.79861 13.5853H11.1938C11.5084 13.5853 11.8102 13.7093 12.0327 13.9302C12.2551 14.1511 12.3801 14.4507 12.3801 14.763V17.3111C12.3782 17.5815 12.485 17.8416 12.6769 18.0335C12.8688 18.2254 13.13 18.3333 13.4024 18.3333H15.0364C15.7996 18.3353 16.5322 18.0357 17.0726 17.5007C17.6129 16.9656 17.9166 16.2392 17.9166 15.4815V8.22239C17.9166 7.61039 17.6433 7.02987 17.1704 6.63723L11.6116 2.2299C10.6446 1.45714 9.25918 1.48209 8.32108 2.28915L2.8891 6.63723C2.39387 7.0183 2.09788 7.60054 2.08325 8.22239V15.4741C2.08325 17.0532 3.37274 18.3333 4.9634 18.3333H6.56016C7.12594 18.3333 7.58575 17.8802 7.58985 17.3185L7.61223 17.3111Z" fill="white"/>
</svg>
