<svg width="14" height="14" viewBox="0 0 14 14" fill="none" xmlns="http://www.w3.org/2000/svg">
<path d="M6.34025 9.70129C6.30642 9.66833 6.16175 9.54388 6.04275 9.42795C5.29433 8.74829 4.06933 6.97528 3.69542 6.04729C3.63533 5.90636 3.50817 5.55005 3.5 5.35968C3.5 5.17726 3.542 5.00337 3.62717 4.83743C3.74617 4.63058 3.93342 4.46464 4.1545 4.37372C4.30792 4.31519 4.767 4.22426 4.77517 4.22426C5.27742 4.13334 6.0935 4.08333 6.99533 4.08333C7.85458 4.08333 8.63742 4.13334 9.14725 4.20778C9.15542 4.21631 9.72592 4.30723 9.92133 4.40668C10.2783 4.5891 10.5 4.9454 10.5 5.32672V5.35968C10.4912 5.60801 10.2696 6.13026 10.2614 6.13026C9.88692 7.00824 8.722 8.74034 7.94792 9.43647C7.94792 9.43647 7.749 9.63253 7.62475 9.71777C7.44625 9.85075 7.22517 9.91667 7.00408 9.91667C6.75733 9.91667 6.5275 9.84222 6.34025 9.70129Z" fill="#ED6F6F"/>
</svg>
