<svg width="20" height="20" viewBox="0 0 20 20" fill="none" xmlns="http://www.w3.org/2000/svg">
<path d="M13.6165 1.66599C16.4415 1.66599 18.3332 3.64933 18.3332 6.59933V13.4085C18.3332 16.3502 16.4415 18.3327 13.6165 18.3327H6.3915C3.5665 18.3327 1.6665 16.3502 1.6665 13.4085V6.59933C1.6665 3.64933 3.5665 1.66599 6.3915 1.66599H13.6165ZM9.9915 8.73349C9.5915 8.73349 9.2665 9.06599 9.2665 9.46683V13.1502C9.2665 13.5502 9.5915 13.8752 9.9915 13.8752C10.3998 13.8752 10.7248 13.5502 10.7248 13.1502V9.46683C10.7248 9.06599 10.3998 8.73349 9.9915 8.73349ZM10.0082 6.09183C9.59984 6.09183 9.27484 6.41683 9.27484 6.82516C9.27484 7.22433 9.59984 7.55016 9.9915 7.55016C10.4082 7.55016 10.7332 7.22433 10.7332 6.82516C10.7332 6.41683 10.4082 6.09183 10.0082 6.09183Z" fill="white"/>
</svg>
