<svg width="14" height="14" viewBox="0 0 14 14" fill="none" xmlns="http://www.w3.org/2000/svg">
<path d="M7.65975 4.29871C7.69358 4.33167 7.83825 4.45612 7.95725 4.57205C8.70567 5.25171 9.93067 7.02472 10.3046 7.95271C10.3647 8.09364 10.4918 8.44995 10.5 8.64032C10.5 8.82274 10.458 8.99663 10.3728 9.16257C10.2538 9.36942 10.0666 9.53536 9.8455 9.62628C9.69208 9.68481 9.233 9.77574 9.22483 9.77574C8.72258 9.86666 7.9065 9.91667 7.00467 9.91667C6.14542 9.91667 5.36258 9.86666 4.85275 9.79222C4.84458 9.78369 4.27408 9.69277 4.07867 9.59332C3.72167 9.4109 3.5 9.0546 3.5 8.67328V8.64032C3.50875 8.39199 3.73042 7.86974 3.73858 7.86974C4.11308 6.99176 5.278 5.25966 6.05208 4.56353C6.05208 4.56353 6.251 4.36747 6.37525 4.28223C6.55375 4.14925 6.77483 4.08333 6.99592 4.08333C7.24267 4.08333 7.4725 4.15778 7.65975 4.29871Z" fill="#64C874"/>
</svg>
