<svg width="372" height="48" viewBox="0 0 372 48" fill="none" xmlns="http://www.w3.org/2000/svg">
<path d="M72.2439 35L65.3319 12.6H68.9799L74.2599 30.52L79.5399 12.6H83.1879L76.2759 35H72.2439ZM93.6394 35.384C92.1034 35.384 90.7487 35.0427 89.5754 34.36C88.402 33.656 87.4847 32.6853 86.8234 31.448C86.162 30.2107 85.8314 28.7707 85.8314 27.128C85.8314 25.464 86.1514 24.0027 86.7914 22.744C87.4527 21.4853 88.37 20.504 89.5434 19.8C90.738 19.096 92.114 18.744 93.6714 18.744C95.2074 18.744 96.53 19.096 97.6394 19.8C98.7487 20.4827 99.602 21.4 100.199 22.552C100.818 23.704 101.127 24.9733 101.127 26.36C101.127 26.5733 101.127 26.808 101.127 27.064C101.127 27.2987 101.117 27.5653 101.095 27.864H89.1594C89.266 29.336 89.746 30.456 90.5994 31.224C91.4527 31.9707 92.4554 32.344 93.6074 32.344C94.61 32.344 95.3994 32.1413 95.9754 31.736C96.5727 31.3093 97.01 30.7333 97.2874 30.008H100.711C100.327 31.5227 99.5274 32.8027 98.3114 33.848C97.0954 34.872 95.538 35.384 93.6394 35.384ZM93.6394 21.688C92.594 21.688 91.666 22.008 90.8554 22.648C90.0447 23.2667 89.522 24.1413 89.2874 25.272H97.7354C97.65 24.2053 97.234 23.3413 96.4874 22.68C95.7407 22.0187 94.7914 21.688 93.6394 21.688ZM105.371 35V11.96H108.763V21.496C109.19 20.7067 109.872 20.056 110.811 19.544C111.75 19.0107 112.806 18.744 113.979 18.744C115.942 18.744 117.435 19.3413 118.459 20.536C119.483 21.7093 119.995 23.4053 119.995 25.624V35H116.603V26.104C116.603 24.7813 116.283 23.7573 115.643 23.032C115.003 22.3067 114.118 21.944 112.987 21.944C111.814 21.944 110.811 22.3387 109.979 23.128C109.168 23.9173 108.763 25.0587 108.763 26.552V35H105.371ZM131.502 16.696C130.756 16.696 130.126 16.4613 129.614 15.992C129.124 15.5013 128.878 14.904 128.878 14.2C128.878 13.496 129.124 12.9093 129.614 12.44C130.126 11.9707 130.756 11.736 131.502 11.736C132.27 11.736 132.9 11.9707 133.39 12.44C133.902 12.9093 134.158 13.496 134.158 14.2C134.158 14.904 133.902 15.5013 133.39 15.992C132.9 16.4613 132.27 16.696 131.502 16.696ZM125.134 35V32.056H130.126V23.128C130.126 22.424 129.785 22.072 129.102 22.072H125.582V19.128H129.71C131.033 19.128 131.993 19.4373 132.59 20.056C133.209 20.6533 133.518 21.6133 133.518 22.936V32.056H138.51V35H125.134ZM151.234 35.384C149.762 35.384 148.439 35.0427 147.266 34.36C146.114 33.6773 145.207 32.7173 144.546 31.48C143.885 30.2213 143.554 28.7493 143.554 27.064C143.554 25.3787 143.885 23.9173 144.546 22.68C145.229 21.4427 146.146 20.4827 147.298 19.8C148.45 19.096 149.762 18.744 151.234 18.744C153.261 18.744 154.893 19.256 156.13 20.28C157.389 21.2827 158.189 22.6693 158.53 24.44H154.978C154.765 23.672 154.327 23.064 153.666 22.616C153.026 22.168 152.205 21.944 151.202 21.944C150.477 21.944 149.783 22.136 149.122 22.52C148.482 22.904 147.959 23.48 147.554 24.248C147.17 24.9947 146.978 25.9333 146.978 27.064C146.978 28.1733 147.17 29.112 147.554 29.88C147.959 30.648 148.482 31.2347 149.122 31.64C149.783 32.024 150.477 32.216 151.202 32.216C152.226 32.216 153.047 31.992 153.666 31.544C154.285 31.096 154.722 30.4773 154.978 29.688H158.53C158.103 31.4373 157.271 32.824 156.034 33.848C154.797 34.872 153.197 35.384 151.234 35.384ZM162.773 35V32.056H168.085V15.96C168.085 15.256 167.744 14.904 167.061 14.904H163.221V11.96H167.669C168.907 11.96 169.845 12.2907 170.485 12.952C171.147 13.592 171.477 14.5307 171.477 15.768V32.056H176.821V35H162.773ZM189.577 35.384C188.041 35.384 186.686 35.0427 185.513 34.36C184.34 33.656 183.422 32.6853 182.761 31.448C182.1 30.2107 181.769 28.7707 181.769 27.128C181.769 25.464 182.089 24.0027 182.729 22.744C183.39 21.4853 184.308 20.504 185.481 19.8C186.676 19.096 188.052 18.744 189.609 18.744C191.145 18.744 192.468 19.096 193.577 19.8C194.686 20.4827 195.54 21.4 196.137 22.552C196.756 23.704 197.065 24.9733 197.065 26.36C197.065 26.5733 197.065 26.808 197.065 27.064C197.065 27.2987 197.054 27.5653 197.033 27.864H185.097C185.204 29.336 185.684 30.456 186.537 31.224C187.39 31.9707 188.393 32.344 189.545 32.344C190.548 32.344 191.337 32.1413 191.913 31.736C192.51 31.3093 192.948 30.7333 193.225 30.008H196.649C196.265 31.5227 195.465 32.8027 194.249 33.848C193.033 34.872 191.476 35.384 189.577 35.384ZM189.577 21.688C188.532 21.688 187.604 22.008 186.793 22.648C185.982 23.2667 185.46 24.1413 185.225 25.272H193.673C193.588 24.2053 193.172 23.3413 192.425 22.68C191.678 22.0187 190.729 21.688 189.577 21.688ZM226.064 35V15.64H220.048V12.6H235.472V15.64H229.456V35H226.064ZM239.811 35V32.056H243.683V23.128C243.683 22.424 243.342 22.072 242.659 22.072H240.131V19.128H243.939C244.814 19.128 245.529 19.384 246.083 19.896C246.638 20.3867 246.915 21.08 246.915 21.976V22.36H247.075C247.31 21.1653 247.811 20.2693 248.579 19.672C249.369 19.0533 250.51 18.744 252.003 18.744H254.467V22.328H251.011C249.753 22.328 248.782 22.7653 248.099 23.64C247.417 24.5147 247.075 25.56 247.075 26.776V32.056H252.003V35H239.811ZM264.695 35.384C263.436 35.384 262.38 35.1707 261.527 34.744C260.674 34.296 260.034 33.7093 259.607 32.984C259.18 32.2373 258.967 31.4267 258.967 30.552C258.967 28.9947 259.532 27.7787 260.663 26.904C261.815 26.0293 263.436 25.592 265.527 25.592H269.623V25.24C269.623 22.8507 268.514 21.656 266.295 21.656C265.378 21.656 264.599 21.8587 263.959 22.264C263.34 22.648 262.924 23.2773 262.711 24.152H259.319C259.49 22.488 260.204 21.176 261.463 20.216C262.743 19.2347 264.354 18.744 266.295 18.744C268.642 18.744 270.348 19.32 271.415 20.472C272.482 21.624 273.015 23.2133 273.015 25.24V35H270.135L269.847 32.664H269.623C269.154 33.4107 268.567 34.0507 267.863 34.584C267.159 35.1173 266.103 35.384 264.695 35.384ZM265.335 32.536C266.722 32.536 267.756 32.12 268.439 31.288C269.143 30.4347 269.527 29.3573 269.591 28.056H265.879C264.663 28.056 263.799 28.2587 263.287 28.664C262.796 29.048 262.551 29.592 262.551 30.296C262.551 31 262.796 31.5547 263.287 31.96C263.799 32.344 264.482 32.536 265.335 32.536ZM285.546 35.384C284.074 35.384 282.752 35.0427 281.578 34.36C280.426 33.6773 279.52 32.7173 278.858 31.48C278.197 30.2213 277.866 28.7493 277.866 27.064C277.866 25.3787 278.197 23.9173 278.858 22.68C279.541 21.4427 280.458 20.4827 281.61 19.8C282.762 19.096 284.074 18.744 285.546 18.744C287.573 18.744 289.205 19.256 290.442 20.28C291.701 21.2827 292.501 22.6693 292.842 24.44H289.29C289.077 23.672 288.64 23.064 287.978 22.616C287.338 22.168 286.517 21.944 285.514 21.944C284.789 21.944 284.096 22.136 283.434 22.52C282.794 22.904 282.272 23.48 281.866 24.248C281.482 24.9947 281.29 25.9333 281.29 27.064C281.29 28.1733 281.482 29.112 281.866 29.88C282.272 30.648 282.794 31.2347 283.434 31.64C284.096 32.024 284.789 32.216 285.514 32.216C286.538 32.216 287.36 31.992 287.978 31.544C288.597 31.096 289.034 30.4773 289.29 29.688H292.842C292.416 31.4373 291.584 32.824 290.346 33.848C289.109 34.872 287.509 35.384 285.546 35.384ZM298.046 35V11.96H301.438V25.784L307.518 19.128H311.774L305.15 26.168V26.424L312.638 35H308.51L301.438 26.84V35H298.046ZM323.377 16.696C322.631 16.696 322.001 16.4613 321.489 15.992C320.999 15.5013 320.753 14.904 320.753 14.2C320.753 13.496 320.999 12.9093 321.489 12.44C322.001 11.9707 322.631 11.736 323.377 11.736C324.145 11.736 324.775 11.9707 325.265 12.44C325.777 12.9093 326.033 13.496 326.033 14.2C326.033 14.904 325.777 15.5013 325.265 15.992C324.775 16.4613 324.145 16.696 323.377 16.696ZM317.009 35V32.056H322.001V23.128C322.001 22.424 321.66 22.072 320.977 22.072H317.457V19.128H321.585C322.908 19.128 323.868 19.4373 324.465 20.056C325.084 20.6533 325.393 21.6133 325.393 22.936V32.056H330.385V35H317.009ZM335.781 35V19.128H338.725L339.013 21.496H339.173C339.6 20.728 340.261 20.0773 341.157 19.544C342.053 19.0107 343.088 18.744 344.261 18.744C346.202 18.744 347.664 19.3307 348.645 20.504C349.626 21.6773 350.117 23.4053 350.117 25.688V35H346.725V26.104C346.725 24.7813 346.448 23.7573 345.893 23.032C345.338 22.3067 344.464 21.944 343.269 21.944C342.096 21.944 341.114 22.3387 340.325 23.128C339.557 23.9173 339.173 25.0587 339.173 26.552V35H335.781ZM361.72 30.424C360.739 30.424 359.832 30.264 359 29.944L358.2 30.904C357.944 31.224 357.87 31.5333 357.976 31.832C358.104 32.1093 358.392 32.248 358.84 32.248H363.032C364.888 32.248 366.382 32.6427 367.512 33.432C368.664 34.2 369.24 35.384 369.24 36.984C369.24 37.9867 368.984 38.8933 368.472 39.704C367.982 40.536 367.182 41.1973 366.072 41.688C364.984 42.1787 363.544 42.424 361.752 42.424C359.491 42.424 357.667 41.9973 356.28 41.144C354.915 40.312 354.232 39.0533 354.232 37.368C354.232 36.7707 354.371 36.216 354.648 35.704C354.947 35.2133 355.331 34.7653 355.8 34.36C355.224 33.9333 354.872 33.336 354.744 32.568C354.638 31.7787 354.872 31.0213 355.448 30.296L356.856 28.504C355.854 27.4373 355.352 26.1253 355.352 24.568C355.352 23.5227 355.598 22.5627 356.088 21.688C356.6 20.792 357.326 20.0773 358.264 19.544C359.224 19.0107 360.376 18.744 361.72 18.744C362.595 18.744 363.406 18.872 364.152 19.128H370.136V21.368L367.352 21.528V21.816C367.8 22.648 368.024 23.5653 368.024 24.568C368.024 25.6133 367.768 26.584 367.256 27.48C366.766 28.376 366.051 29.0907 365.112 29.624C364.174 30.1573 363.043 30.424 361.72 30.424ZM361.72 27.704C362.659 27.704 363.427 27.4267 364.024 26.872C364.643 26.3173 364.952 25.5493 364.952 24.568C364.952 23.6293 364.643 22.8827 364.024 22.328C363.427 21.7733 362.659 21.496 361.72 21.496C360.76 21.496 359.971 21.7733 359.352 22.328C358.755 22.8827 358.456 23.6293 358.456 24.568C358.456 25.5493 358.755 26.3173 359.352 26.872C359.971 27.4267 360.76 27.704 361.72 27.704ZM357.432 37.112C357.432 37.9653 357.838 38.5947 358.648 39C359.48 39.4053 360.515 39.608 361.752 39.608C363.075 39.608 364.12 39.384 364.888 38.936C365.656 38.488 366.04 37.8587 366.04 37.048C366.04 36.3653 365.763 35.8213 365.208 35.416C364.654 35.032 363.715 34.84 362.392 34.84H358.648C357.838 35.48 357.432 36.2373 357.432 37.112Z" fill="white"/>
<path d="M30.8994 7.5606C30.8194 8.0606 30.7794 8.5606 30.7794 9.0606C30.7794 13.5606 34.4194 17.1986 38.8994 17.1986C39.3994 17.1986 39.8794 17.1406 40.3794 17.0606V33.1986C40.3794 39.9806 36.3794 44.0006 29.5794 44.0006H14.8014C7.9994 44.0006 3.9994 39.9806 3.9994 33.1986V18.4006C3.9994 11.6006 7.9994 7.5606 14.8014 7.5606H30.8994ZM31.3014 19.7206C30.7594 19.6606 30.2214 19.9006 29.8994 20.3406L25.0614 26.6006L19.5194 22.2406C19.1794 21.9806 18.7794 21.8786 18.3794 21.9206C17.9814 21.9806 17.6214 22.1986 17.3794 22.5186L11.4614 30.2206L11.3394 30.4006C10.9994 31.0386 11.1594 31.8586 11.7594 32.3006C12.0394 32.4806 12.3394 32.6006 12.6794 32.6006C13.1414 32.6206 13.5794 32.3786 13.8594 32.0006L18.8794 25.5386L24.5794 29.8206L24.7594 29.9386C25.3994 30.2786 26.1994 30.1206 26.6594 29.5186L32.4394 22.0606L32.3594 22.1006C32.6794 21.6606 32.7394 21.1006 32.5194 20.6006C32.3014 20.1006 31.8194 19.7606 31.3014 19.7206ZM39.1796 4C41.8396 4 43.9996 6.16 43.9996 8.82C43.9996 11.48 41.8396 13.64 39.1796 13.64C36.5196 13.64 34.3596 11.48 34.3596 8.82C34.3596 6.16 36.5196 4 39.1796 4Z" fill="white"/>
</svg>
